<svg width="512" height="239" viewBox="0 0 512 239" fill="none" xmlns="http://www.w3.org/2000/svg">
<mask id="mask0_127_870" style="mask-type:alpha" maskUnits="userSpaceOnUse" x="0" y="0" width="512" height="239">
<rect x="0.5" y="0.5" width="510.796" height="237.597" rx="14.5" fill="white" stroke="black"/>
</mask>
<g mask="url(#mask0_127_870)">
<rect x="0.5" y="0.5" width="510.796" height="237.597" rx="14.5" fill="white" stroke="black"/>
<path fill-rule="evenodd" clip-rule="evenodd" d="M419.534 144.371C419.855 145.033 421.078 145.233 421.88 145.373C428.416 146.536 456.745 147.138 459.472 144.792C461.858 142.787 460.534 110.027 458.209 108.704C455.201 106.92 422.401 106.579 420.116 108.403C418.452 109.787 417.409 139.74 419.534 144.371ZM420.617 108.824C422.442 107.301 454.48 108.443 457.367 109.847C458.91 113.977 459.913 139.92 458.409 143.609C455.963 145.293 425.99 145.233 420.757 143.609C418.712 138.697 419.474 109.787 420.617 108.824ZM339.8 105.316C339.005 106.676 337.931 107.853 336.649 108.768C335.368 109.684 333.906 110.318 332.362 110.629C332.315 110.617 332.265 110.615 332.217 110.625C332.169 110.635 332.124 110.656 332.086 110.686C332.047 110.716 332.016 110.755 331.994 110.798C331.973 110.842 331.962 110.891 331.962 110.94C331.962 110.988 331.973 111.037 331.994 111.081C332.016 111.125 332.047 111.163 332.086 111.193C332.124 111.223 332.169 111.244 332.217 111.254C332.265 111.264 332.315 111.262 332.362 111.25C335.891 112.173 340.482 108.965 340.482 105.436C340.498 105.346 340.477 105.253 340.424 105.177C340.372 105.102 340.291 105.051 340.201 105.035C340.111 105.019 340.018 105.04 339.942 105.092C339.867 105.145 339.816 105.225 339.8 105.316ZM323.42 87.3721V89.3769C323.42 89.6428 323.526 89.8978 323.714 90.0858C323.902 90.2738 324.157 90.3794 324.423 90.3794C324.687 90.3743 324.939 90.267 325.126 90.0801C325.313 89.8932 325.42 89.6412 325.425 89.3769V87.3721C325.425 87.1062 325.319 86.8512 325.131 86.6632C324.943 86.4752 324.688 86.3696 324.423 86.3696C324.157 86.3696 323.902 86.4752 323.714 86.6632C323.526 86.8512 323.42 87.1062 323.42 87.3721ZM343.409 89.2767C343.409 89.5426 343.514 89.7975 343.702 89.9855C343.89 90.1735 344.145 90.2791 344.411 90.2791C344.677 90.2791 344.932 90.1735 345.12 89.9855C345.308 89.7975 345.414 89.5426 345.414 89.2767V86.7906C345.414 86.5248 345.308 86.2698 345.12 86.0818C344.932 85.8938 344.677 85.7882 344.411 85.7882C344.145 85.7882 343.89 85.8938 343.702 86.0818C343.514 86.2698 343.409 86.5248 343.409 86.7906C343.329 87.6527 343.409 88.6552 343.409 89.2767Z" fill="black"/>
<path fill-rule="evenodd" clip-rule="evenodd" d="M459.653 234.31C459.521 234.087 459.335 233.9 459.111 233.769C457.387 232.927 448.004 233.348 446.059 233.428C446.4 180.84 418.693 148.04 378.475 138.637C371.097 136.913 371.077 136.792 370.876 136.913L369.513 133.163C373.362 133.043 376.51 130.076 380.038 130.677C382.705 131.118 384.048 133.484 386.675 134.487C391.125 136.171 399.045 133.584 401.471 129.354C402.714 127.149 401.611 124.863 402.393 123.34C403.796 122.117 407.786 120.152 408.929 118.728C411.275 115.801 411.375 109.245 410.312 105.696C408.394 101.681 405.781 98.036 402.593 94.9303C399.126 91.5892 396.052 87.8626 393.431 83.8232C390.203 77.3875 390.083 68.4858 387.416 61.7694C384.477 55.7051 379.928 50.5657 374.264 46.9132C368.733 43.0062 362.064 41.0394 355.298 41.3195C348.983 41.7205 346.517 44.4071 343.569 45.3293C340.622 46.2516 340.001 45.3293 335.209 47.4345C333.306 48.5937 331.612 50.0644 330.197 51.7851C329.595 52.4266 329.636 52.4667 328.613 52.5068C327.512 52.424 326.406 52.424 325.305 52.5068C323.428 52.9234 321.632 53.6483 319.992 54.652C308.825 61.3484 311.832 74.8212 307.622 84.7254C304.755 91.4618 296.775 97.9376 296.094 104.975C295.852 108.21 296.548 111.447 298.099 114.297C302.97 122.858 309.968 116.142 313.596 121.375C314.739 123.019 315.601 124.623 317.726 124.943C320.433 125.304 324.122 123.159 326.327 121.575C326.791 122.115 327.316 122.6 327.891 123.019C329.846 124.336 331.944 125.426 334.147 126.267L329.054 133.384C319.511 132.301 304.855 135.389 295.412 138.296C295.071 135.89 292.104 116.022 289.859 115.059C286.751 113.696 254.131 117.485 252.147 119.63C250.683 121.194 253.309 150.967 256.156 155.418C256.577 156.099 258.021 156.119 258.823 156.139C254.131 159.347 249.6 162.595 247.976 163.778C246.713 159.407 240.077 136.291 237.631 132.502C236.929 131.399 236.288 131.419 233.06 132.502C231.22 123.322 228.891 114.247 226.083 105.316C227.136 103.585 227.977 101.734 228.589 99.8021C229.336 96.7429 229.446 93.5626 228.91 90.4594C231.356 91.2814 245.972 95.2911 248.337 94.1283C248.973 93.6749 249.444 93.0277 249.681 92.2838C252.267 86.63 256.698 67.3229 257.038 61.208C257.179 60.425 257.044 59.6176 256.658 58.9225C254.312 56.4765 222.755 47.3944 220.088 48.5973C218.464 49.3391 214.074 63.7542 213.613 65.4584C209.783 78.3097 211.728 75.4828 209.603 76.2247C207.157 77.0868 205.052 82.2393 204.19 84.6251C203.328 87.0109 202.425 90.2188 203.448 92.1034C203.033 92.8698 202.866 93.7463 202.97 94.6118C203.074 95.4772 203.444 96.289 204.029 96.9351C203.392 97.6458 202.976 98.5276 202.834 99.4717C202.691 100.416 202.828 101.381 203.227 102.248C203.809 104.073 207.438 105.275 209.242 105.797C207.817 109.636 206.632 113.56 205.693 117.545C204.094 123.73 202.816 129.994 201.864 136.311C201.271 139.381 201.075 142.514 201.283 145.634L197.995 147.117C197.868 147.175 197.761 147.269 197.686 147.386C197.612 147.504 197.572 147.64 197.574 147.779C197.574 147.779 198.195 172.078 206.195 192.268C215.858 216.707 231.757 224.887 255.956 215.745C256.174 217.663 256.646 219.544 257.359 221.338C257.72 221.98 258.943 222.1 259.765 222.18C266.883 222.414 274.008 222.193 281.097 221.519L287.112 259.612C285.488 264.303 267.063 317.754 267.324 322.726C267.324 323.247 267.524 323.648 268.386 324.049C273.699 326.515 324.042 333.091 325.947 327.598C326.428 326.254 327.591 317.693 327.811 316.069L356.14 312.942L383.146 314.726C383.437 317.43 383.919 320.11 384.589 322.746C384.83 323.347 385.111 323.668 385.812 323.608C388.479 323.347 402.694 320.781 406.623 320.039C421.7 317.192 421.359 316.952 420.918 315.468C419.855 311.959 409.991 284.593 406.142 271.822C411.773 272.422 417.452 272.422 423.083 271.822C423.144 272.039 423.259 272.237 423.416 272.398C423.574 272.559 423.77 272.678 423.986 272.744C427.654 274.087 460.434 272.223 463.121 269.536C465.547 267.391 461.477 237.357 459.653 234.31ZM220.129 49.4594C220.349 49.1186 220.269 48.9782 222.033 49.2388C229.391 50.2814 253.45 58.0403 255.535 59.8648C255.936 64.456 249.981 89.6574 247.636 92.7048C245.931 93.2862 234.624 90.3992 232.88 89.9381C219.607 86.4696 220.129 85.9283 217.101 85.2266C215.537 84.6853 215.377 84.6652 215.417 84.4447C215.422 84.3951 215.445 84.3491 215.482 84.3157C215.519 84.2823 215.568 84.264 215.618 84.2642C217.422 84.2642 222.254 84.1239 223.437 82.7205C223.698 82.4351 223.893 82.0956 224.007 81.7261C224.122 81.3567 224.154 80.9665 224.1 80.5834C224.046 80.2004 223.909 79.8339 223.697 79.5101C223.485 79.1864 223.205 78.9134 222.875 78.7107C220.299 77.6784 217.605 76.9647 214.856 76.5855C214.034 76.4251 213.031 76.1445 212.029 76.0242C213.412 69.7689 217.983 52.7875 220.129 49.4594ZM202.907 144.972V141.865C203.087 138.055 204.911 128.051 205.453 125.304C206.335 120.853 206.535 119.851 209.102 110.187C209.102 109.927 210.645 105.616 210.645 105.616C210.673 105.541 210.684 105.462 210.679 105.382C210.673 105.302 210.651 105.225 210.613 105.155C210.575 105.085 210.522 105.023 210.459 104.975C210.395 104.927 210.322 104.892 210.244 104.874C210.024 104.874 204.811 103.591 204.23 101.927C203.648 100.263 203.528 98.2584 204.992 97.3762C205.045 97.3372 205.089 97.2859 205.119 97.2267C205.15 97.1674 205.165 97.1019 205.165 97.0354C205.165 96.9689 205.15 96.9033 205.119 96.8441C205.089 96.7848 205.045 96.7336 204.992 96.6946C204.351 96.1685 203.92 95.4304 203.776 94.6139C203.633 93.7975 203.787 92.9566 204.21 92.2437C204.671 91.3014 202.205 91.7625 205.132 85.0061C205.874 83.342 208.38 78.2295 210.084 77.6682C211.593 77.5209 213.116 77.6917 214.555 78.1694C217.068 78.5652 219.538 79.1961 221.933 80.054C222.085 80.1358 222.217 80.2517 222.317 80.3927C222.417 80.5336 222.483 80.6958 222.51 80.8666C222.537 81.0374 222.525 81.2121 222.473 81.3772C222.422 81.5423 222.333 81.6932 222.214 81.8183C221.333 82.3174 220.368 82.6504 219.367 82.8007C213.051 84.0437 214.174 82.6603 213.352 84.8056C210.939 84.6641 208.528 85.0969 206.315 86.0686C205.453 86.2491 205.814 86.8105 206.435 86.7102C209.121 85.8299 211.994 85.6845 214.755 86.2892C216.358 86.582 217.924 87.0457 219.427 87.6726C220.79 88.2263 222 89.0996 222.955 90.2188C223.126 90.6429 223.19 91.1025 223.141 91.557C223.092 92.0115 222.932 92.447 222.675 92.8251C222.194 93.5669 219.868 93.0657 218.986 92.8251C217.783 92.4642 216.52 92.1635 215.337 91.7826C213.673 91.2613 213.853 91.121 213.332 91.1611C211.493 91.4216 209.694 91.9133 207.979 92.6246C207.93 92.6302 207.884 92.6467 207.843 92.6731C207.801 92.6994 207.767 92.7347 207.741 92.7764C207.716 92.8182 207.7 92.8651 207.696 92.9138C207.691 92.9624 207.698 93.0114 207.715 93.0571C207.733 93.1028 207.76 93.1439 207.796 93.1773C207.832 93.2107 207.874 93.2356 207.921 93.2499C207.968 93.2643 208.017 93.2678 208.065 93.2602C208.114 93.2526 208.159 93.2341 208.199 93.206C209.735 92.7731 211.304 92.4713 212.891 92.3038C213.793 92.3038 213.212 92.3038 215.477 93.206C216.5 93.587 217.482 93.8877 218.565 94.2486C219.261 94.4872 219.98 94.6552 220.71 94.7498C221.993 95.9527 222.915 98.7596 221.191 99.2608C220.514 99.3776 219.817 99.294 219.186 99.0202C214.595 97.5166 217.703 96.4339 207.738 98.4789C207.657 98.489 207.582 98.5299 207.53 98.5933C207.478 98.6568 207.452 98.7378 207.458 98.8197C207.458 99.341 207.798 99.0202 213.312 98.8197C213.979 98.7527 214.65 98.7527 215.317 98.8197C217.041 99.7019 219.607 101.206 221.592 100.624C224.018 99.8422 223.938 97.1557 222.374 95.1909C221.813 94.5092 221.752 94.7097 222.234 94.6295C222.585 94.5913 222.926 94.4808 223.233 94.3048C223.54 94.1289 223.807 93.8913 224.018 93.607C224.493 92.952 224.758 92.1688 224.78 91.3601C224.801 90.5515 224.578 89.7552 224.138 89.076L227.506 90.0784C228.173 93.1837 228.118 96.4006 227.346 99.4813C227.131 100.233 226.849 100.965 226.504 101.667C225.04 104.754 224.499 104.854 224.68 105.436C227.466 114.495 229.761 123.697 231.556 133.003C223.998 135.65 210.144 141.744 202.907 144.972ZM361.553 284.292C370.134 284.653 388.579 285.314 397.04 285.054C396.458 287.58 396.098 289.184 395.997 289.545C391.967 289.545 365.924 285.034 361.553 284.292ZM400.288 283.269C394.915 284.533 325.165 281.806 319.19 279.26C319.812 274.769 325.666 249.527 326.849 244.375C332.111 245.985 337.585 246.796 343.088 246.78C345.093 247.823 348.401 249.627 350.386 250.57C350.166 252.274 349.624 256.304 350.827 257.507C352.03 258.71 379.718 268.874 403.997 271.721C403.017 275.649 401.778 279.506 400.288 283.269ZM326.207 235.012C325.284 234.732 324.43 234.26 323.701 233.628C323.18 233.067 323.36 231.363 323.701 230.561C323.887 230.171 324.218 229.869 324.623 229.719C325.113 229.506 325.635 229.377 326.167 229.338C326.326 229.334 326.481 229.282 326.609 229.188C326.738 229.094 326.835 228.964 326.887 228.813C326.94 228.663 326.945 228.5 326.902 228.346C326.859 228.193 326.771 228.056 326.648 227.955C325.475 226.967 324.659 225.622 324.323 224.125C324.323 223.023 324.744 221.88 326.508 220.877C328.513 221.038 334.527 226.01 337.314 223.143C340.101 220.276 336.813 213.559 339.921 212.998C343.028 212.437 344.592 221.78 345.133 222.802C346.938 226.311 351.79 228.817 354.556 231.704C352.885 237.68 351.547 243.744 350.546 249.868C346.537 247.723 343.569 245.858 343.269 245.858C339.079 245.718 327.831 244.555 324.904 241.568C324.383 241.166 324.027 240.588 323.902 239.942C323.776 239.296 323.89 238.627 324.222 238.059C324.436 237.682 324.723 237.353 325.068 237.091C325.413 236.829 325.807 236.64 326.227 236.535C326.399 236.493 326.551 236.395 326.66 236.255C326.768 236.115 326.826 235.943 326.823 235.766C326.821 235.589 326.759 235.418 326.647 235.281C326.535 235.144 326.38 235.049 326.207 235.012ZM348.542 168.249C344.817 167.893 341.075 167.745 337.334 167.808C336.853 167.808 336.452 168.049 336.312 168.51C335.971 169.793 330.297 211.494 330.016 213.539C328.814 193.491 327.57 172.379 326.648 156.901C333.625 168.028 334.227 169.131 335.329 168.349C339.047 165.292 342.563 161.997 345.855 158.485C346.457 160.711 347.419 164.339 348.542 168.249ZM366.886 161.212C365.523 159.207 364.18 157.202 363.679 156.46L370.154 140.161L366.886 161.212ZM371.558 138.196C379.141 139.759 386.534 142.132 393.611 145.273C393.311 146.215 389.441 158.044 384.81 172.159C382.685 171.898 370.515 170.414 366.766 170.013L371.558 138.196ZM363.358 158.686L366.525 163.457L365.523 169.873L362.415 169.472C362.877 165.121 363.197 160.991 363.358 158.686ZM418.713 179.837C418.688 182.448 418.433 185.051 417.951 187.616C411.074 185.852 351.088 171.096 344.993 174.564C341.946 176.329 331.921 217.469 330.959 221.178L330.237 220.817C333.405 198.543 337.615 169.332 337.615 169.251C344.452 168.47 410.312 175.928 418.713 179.837ZM383.727 221.759C379.236 221.459 361.413 220.577 357.664 223.063C357.082 223.464 356.842 223.544 354.777 230.962C352.11 228.135 347.639 225.469 346.136 222.321C345.454 220.937 344.351 210.833 339.68 211.615C333.385 212.677 341.424 225.649 332.122 221.639C332.723 219.093 342.587 176.629 345.334 175.066C351.148 171.758 414.563 187.897 422.582 190.162C422.121 195.054 416.227 221.158 415.144 225.93C404.761 223.935 394.271 222.542 383.727 221.759ZM352.852 81.5176C353.975 82.2794 353.935 84.1039 353.734 85.4271C352.331 94.3889 343.349 99.8222 337.114 91.2413C335.69 89.2364 334.588 82.8608 335.55 81.4574C336.191 80.6354 341.364 80.5953 342.407 80.5953C344.331 80.6153 351.85 80.9161 352.772 81.5176H352.852ZM328.974 82.9611C328.974 86.7303 327.711 92.9855 324.363 94.7899C318.969 97.5968 313.496 93.1459 313.356 87.3518C313.15 85.2365 313.252 83.1026 313.657 81.0163L313.857 80.9161C313.536 80.3547 327.631 80.1743 328.894 81.4374C328.936 81.9444 328.936 82.4541 328.894 82.9611H328.974ZM335.951 126.607C339.419 127.61 345.013 127.129 347.7 124.382C347.756 124.322 347.787 124.244 347.787 124.162C347.787 124.079 347.756 124.001 347.7 123.941C347.238 123.38 347.7 124.462 342.487 125.244C337.274 126.026 334.126 125.244 328.854 121.816C326.43 119.589 324.615 116.78 323.581 113.656C321.422 108.368 320.07 102.785 319.571 97.0955C321.458 97.4045 323.394 97.0877 325.084 96.1933C326.725 95.234 327.996 93.7512 328.693 91.9831C328.017 94.1017 327.461 96.2571 327.029 98.4388C326.935 98.7181 326.921 99.0181 326.989 99.305C327.056 99.5919 327.202 99.8543 327.41 100.063C328.796 100.91 330.429 101.263 332.041 101.065C332.089 101.077 332.138 101.078 332.186 101.069C332.234 101.059 332.279 101.038 332.318 101.008C332.356 100.978 332.388 100.939 332.409 100.896C332.431 100.852 332.442 100.803 332.442 100.754C332.442 100.706 332.431 100.657 332.409 100.613C332.388 100.569 332.356 100.531 332.318 100.501C332.279 100.471 332.234 100.45 332.186 100.44C332.138 100.43 332.089 100.432 332.041 100.444C330.852 100.311 329.704 99.9287 328.673 99.321C328.212 99.0002 328.413 99.2007 328.553 98.539C328.693 97.8774 331.3 88.3141 331.44 87.7127C332.061 87.7127 334.427 87.3919 334.427 86.8105C334.427 86.229 332.543 86.0686 331.841 86.1087C331.841 85.8481 331.961 85.6276 332.021 85.4271C332.053 85.3473 332.052 85.2582 332.018 85.1792C331.984 85.1002 331.921 85.038 331.841 85.0061C331.761 84.9742 331.672 84.9752 331.593 85.0091C331.514 85.0429 331.452 85.1067 331.42 85.1865C330.718 86.5498 331.199 86.0486 330.257 86.2892C330.619 84.4354 330.619 82.5292 330.257 80.6755C329.114 78.9112 322.237 79.3122 319.992 79.4525C321.135 72.7361 325.586 69.4281 328.312 64.055C329.076 62.8078 330.094 61.7354 331.3 60.9073C331.901 60.7469 333.084 62.2506 333.806 62.6115C334.527 62.9723 335.209 64.9572 335.811 65.6388C337.702 67.7922 339.881 69.6744 342.286 71.2325C344.291 72.6559 347.419 72.8765 348.782 74.7009C349.358 76.2523 349.637 77.8982 349.604 79.5528C347.018 79.3924 336.232 79.232 334.948 81.0765C333.786 82.5601 334.287 89.3366 335.991 91.943C340.281 98.4388 346.878 98.8398 352.03 92.9855C352.584 92.2945 353.055 91.5408 353.434 90.74C357.283 96.7547 360.31 100.343 360.451 107.401C360.611 116.342 358.085 131.159 367.768 133.023L369.433 137.614C361.413 157.783 361.834 156.52 361.834 156.721C361.834 156.921 361.453 162.736 360.751 169.392C356.902 168.991 353.313 168.65 350.125 168.389C349.885 167.567 346.898 156.941 346.958 156.721C347.258 155.718 345.755 153.754 344.592 152.009C340.231 145.696 335.47 139.669 330.337 133.965L335.951 126.607ZM328.894 134.507C329.235 135.028 343.67 150.907 345.434 156.741C342.191 160.336 338.686 163.687 334.948 166.765C333.605 165.001 329.976 159.187 326.528 153.754C325.906 143.268 325.485 135.97 325.385 134.447C326.508 134.366 327.771 134.427 328.813 134.507H328.894ZM257.299 154.556C255.014 150.546 251.846 124.482 252.588 120.473C252.588 120.112 252.588 119.991 254.272 119.53C261.449 117.666 286.631 115.52 289.277 116.423C291.282 120.332 295.673 145.854 294.63 149.784C292.585 151.428 263.194 155.578 257.219 154.556H257.299ZM258.703 220.516C256.397 215.985 254.693 186.935 255.836 185.832C257.54 184.188 289.538 182.784 292.565 183.967C294.57 188.178 297.417 214.041 296.234 217.549C293.507 219.594 263.434 221.599 258.622 220.516H258.703ZM304.474 186.915C305.918 186.534 315.982 183.967 317.185 183.246C318.047 182.744 319.03 184.368 302.169 138.095C304.173 136.251 321.696 133.885 324.463 134.747C324.463 135.85 327.089 182.644 329.154 220.196C328.172 219.714 326.748 218.973 325.846 219.474C322.077 221.479 321.836 224.807 324.623 228.055C324.103 228.182 323.619 228.43 323.212 228.778C322.805 229.127 322.485 229.565 322.278 230.06C321.956 230.812 321.82 231.631 321.879 232.447C321.938 233.263 322.192 234.053 322.618 234.751C323.086 235.199 323.62 235.571 324.202 235.854C323.603 236.255 323.131 236.818 322.839 237.478C322.576 238.046 322.42 238.658 322.378 239.282L304.474 186.915ZM354.376 311.679L328.192 314.586C328.312 313.623 331.259 290.387 332.202 282.508C337.655 282.989 344.231 283.41 351.268 283.791C352.431 298.246 354.476 308.23 354.296 311.679H354.376ZM355.759 311.518C356.04 306.947 352.271 284.031 352.251 283.831L354.256 283.931C361.072 285.194 378.635 288.302 380.54 288.622C381.181 295.078 382.785 310.115 383.166 313.202C353.273 311.278 356.501 311.438 355.659 311.518H355.759ZM462.139 268.614C460.134 270.218 430.682 272.904 424.607 271.581C422.261 267.03 420.597 237.999 421.74 236.896C423.464 235.232 455.462 233.869 458.45 235.032C460.334 239.222 463.241 265.185 462.058 268.614H462.139Z" fill="black"/>
<path fill-rule="evenodd" clip-rule="evenodd" d="M258.743 253.878C258.582 253.156 258.362 252.114 257.78 251.873C255.775 250.67 242.563 250.43 240.218 250.39C239.696 240.826 238.774 229.779 237.27 226.812C236.288 224.807 171.49 224.607 169.265 224.587C169.425 213.8 169.445 197.36 169.265 186.494C172.091 186.494 186.206 186.494 188.151 184.89C190.637 182.885 188.973 156.12 187.85 150.807C187.689 150.085 187.449 149.042 186.888 148.802C183.96 147.058 151.12 146.637 148.795 148.501C147.572 149.524 147.111 162.054 147.05 163.638C142.459 163.638 114.07 163.057 103.925 163.297V146.917C106.552 146.917 121.969 147.338 123.974 145.654C126.4 143.649 125.598 110.889 123.292 109.566C120.987 108.243 106.592 107.822 104.106 107.762C104.106 104.915 103.885 97.7374 103.865 97.5569C113.148 97.2161 137.607 97.998 147.692 97.998C147.692 101.146 147.512 112.353 148.835 115.22C149.156 115.902 150.379 116.102 151.18 116.242C157.556 117.365 185.985 118.027 188.772 115.661C191.559 113.295 189.614 83.3222 187.99 80.0944C187.883 79.8623 187.717 79.662 187.509 79.513C184.482 77.7286 151.682 77.5081 149.416 79.2122C148.113 80.3149 147.672 94.6699 147.632 96.3941C137.387 96.3941 113.288 95.6122 103.745 95.953C103.745 92.0836 103.544 88.1741 103.544 84.3247C106.391 84.3247 123.593 84.064 125.738 82.1795C127.884 80.2949 125.738 49.9208 124.014 46.6328C123.907 46.3998 123.732 46.2042 123.513 46.0714C120.466 44.3673 87.6656 44.8885 85.4201 46.7731C83.716 48.2567 83.4152 78.2298 85.7008 82.8611C85.8583 83.1197 86.0985 83.3175 86.3825 83.4225C88.668 84.3848 99.334 84.4049 101.84 84.4049C101.84 93.3667 102.241 100.644 102.321 107.802C100.316 107.802 86.6431 107.501 85.1194 108.724C83.5957 109.947 81.7512 139.9 83.8764 144.812C84.1771 145.474 85.4001 145.714 86.202 145.855C91.5155 146.622 96.8731 147.044 102.241 147.118V176.71C100.336 176.71 87.2847 176.469 85.8211 177.652C84.3575 178.835 82.4328 208.828 84.558 213.74C84.8588 214.422 86.0817 214.642 86.8837 214.803C93.3795 216.046 121.689 217.128 124.475 214.803C127.262 212.477 125.819 182.424 124.295 179.236C124.186 178.999 124.021 178.792 123.814 178.635C121.628 177.311 106.431 176.87 103.765 176.81V165.222C114.15 164.961 141.377 165.543 146.87 165.563C146.87 168.951 146.549 181.722 147.993 184.83C148.124 185.099 148.354 185.307 148.634 185.411C151.221 186.594 164.673 186.835 167.42 186.855C167.681 197.761 167.661 214.241 167.42 224.948C140.474 224.807 112.526 225.088 106.892 226.231C106.291 226.351 105.309 226.551 105.269 227.394C105.269 227.394 104.186 244.716 103.685 250.67C101.9 250.67 90.1717 250.67 88.8084 251.873C87.4451 253.076 85.9414 283.109 88.1468 287.961C88.4475 288.623 89.6705 288.843 90.4724 288.984C96.868 290.106 125.277 290.768 128.064 288.402C130.851 286.037 128.886 256.003 127.282 252.836C127.363 252.644 127.388 252.434 127.357 252.229C127.325 252.023 127.236 251.831 127.102 251.673C124.796 250.289 108.336 250.169 105.609 250.149C106.091 244.134 107.133 227.394 107.133 227.394C113.99 225.389 228.048 225.629 236.027 227.654C237.25 230.581 238.032 240.626 238.674 250.229C236.669 250.229 221.432 250.109 219.848 251.432C218.264 252.755 217.061 282.849 219.186 287.52C219.327 287.789 219.563 287.997 219.848 288.102C223.397 289.705 256.217 290.427 259.104 287.961C259.6 287.36 259.888 286.615 259.926 285.836C260.868 279.741 260.046 259.893 258.743 253.878ZM149.837 79.4528C151.622 77.9692 183.62 79.0318 186.587 80.4753C187.331 83.6396 187.761 86.8699 187.87 90.1188C175.019 88.8156 157.656 89.8181 148.795 90.1188C148.835 88.9159 149.156 79.934 149.837 79.3927V79.4528ZM148.775 91.2215C163.37 91.6826 180.692 90.9208 187.93 91.001C188.151 94.5496 188.933 111.17 187.629 114.238C186.146 115.26 174.457 115.441 172.673 115.461C168.362 115.461 154.148 115.461 149.978 114.258C148.534 110.749 148.674 95.1711 148.775 91.1614V91.2215ZM85.9414 46.9335C87.7257 45.3697 119.784 45.6704 122.711 46.9335C123.369 49.1682 123.786 51.4669 123.954 53.7902C111.003 53.4084 98.0422 54.0789 85.1996 55.7951C85.2196 55.0734 85.36 47.4548 85.9414 46.9335ZM87.004 81.7183C85.38 78.0895 85.1595 61.2083 85.1996 56.4768C86.8837 56.2763 123.292 54.4719 124.034 54.4719C124.475 58.4817 126.039 77.1873 124.636 80.6958C121.949 82.6406 91.7756 83.0215 87.004 81.7183ZM85.6206 108.844C87.4451 107.381 119.423 108.965 122.37 110.448C123.026 113.44 123.389 116.489 123.453 119.551C123.653 119.551 95.1037 118.428 84.4578 118.769C84.5179 117.586 84.9991 109.326 85.6206 108.844ZM123.413 213.099C121.207 214.542 91.6353 214.362 85.781 212.497C84.3375 208.908 84.7786 192.448 84.979 188.258C85.1795 188.258 112.586 190.383 124.054 189.04C124.255 192.709 124.796 209.971 123.413 213.079V213.099ZM122.932 179.296C123.584 182.296 123.953 185.35 124.034 188.418C124.235 188.418 95.7453 187.296 85.0191 187.617C85.1085 184.394 85.4504 181.183 86.0416 178.013C86.182 177.612 86.0416 177.532 87.846 177.331C95.0235 176.529 120.365 177.993 122.932 179.276V179.296ZM85.1996 143.629C83.7761 140.041 84.2172 123.701 84.4177 119.41C84.6583 119.41 111.985 121.535 123.493 120.192C123.693 123.881 124.255 141.043 122.851 144.251C120.145 146.015 90.0314 145.173 85.1996 143.629ZM127.543 263.221C127.783 266.95 128.545 283.53 127.242 286.678C125.117 288.162 95.4245 288.462 89.5903 286.678C88.1468 283.19 88.2871 267.491 88.3874 263.301C101.319 263.802 113.068 263.221 127.543 263.221ZM126.2 252.916C126.941 256.074 127.378 259.297 127.503 262.539C114.752 261.256 96.7878 262.279 88.4074 262.66C88.4074 261.396 88.7883 252.435 89.45 251.893C91.2544 250.41 123.232 251.472 126.2 252.916ZM149.156 148.762C151 147.218 182.998 148.381 185.905 149.784C186.668 153.075 187.111 156.432 187.228 159.809C178.527 159.348 156.874 157.964 148.133 159.047C148.233 157.904 148.574 149.303 149.156 148.762ZM149.356 183.507C147.892 179.998 148.053 163.959 148.173 159.769C151 159.488 171.45 160.771 180.953 160.691C183.379 160.691 185.564 160.591 187.329 160.53C187.549 164.099 188.291 180.399 187.008 183.486C184.381 185.351 154.228 185.05 149.356 183.507ZM220.189 251.893C221.993 250.41 253.971 251.472 256.958 252.916C257.693 256.082 258.123 259.311 258.242 262.559C245.611 261.276 227.326 262.299 219.166 262.559C219.186 261.497 219.527 252.495 220.189 251.953V251.893ZM258.001 286.678C255.816 288.162 226.123 288.462 220.349 286.678C218.886 283.21 219.026 267.451 219.146 263.281C232.639 263.802 242.764 263.281 258.282 263.281C258.522 266.97 259.284 283.611 258.001 286.738V286.678Z" fill="black"/>
</g>
</svg>
